<?xml version="1.0" encoding="utf-8"?>
<!-- Generator: Adobe Illustrator 24.1.2, SVG Export Plug-In . SVG Version: 6.00 Build 0)  -->
<svg version="1.1" id="Capa_1" xmlns="http://www.w3.org/2000/svg" xmlns:xlink="http://www.w3.org/1999/xlink" x="0px" y="0px"
	 viewBox="0 0 512 512" style="enable-background:new 0 0 512 512;" xml:space="preserve">
<style type="text/css">
	.st0{fill:#00005B;}
	.st1{fill:#9999FF;}
</style>
<path id="XMLID_1806_" class="st0" d="M409.1,510.8L103.22,511C46.91,511.04,1.23,465.42,1.2,409.1L1,103.22
	C0.96,46.91,46.58,1.23,102.9,1.2L408.78,1c56.31-0.04,101.99,45.58,102.03,101.9l0.2,305.88
	C511.04,465.09,465.42,510.77,409.1,510.8z"/>
<g id="XMLID_1804_">
	<path class="st1" d="M211.25,298.81l-82.78,0.05l-21.5,56.04l-42.88,0.03l87.1-219.88l36.8-0.02l87.38,219.77l-42.55,0.03
		L211.25,298.81z M169.46,187.94c-7.67,23-14.51,42.22-20.53,57.67l-7.5,19.57l56.82-0.04l-7.53-19.56
		c-5.97-15.57-12.84-34.79-20.6-57.64L169.46,187.94z"/>
	<path class="st1" d="M383.62,327.45c7.56,0,15.44-0.77,23.66-2.32c8.21-1.54,16.54-3.73,24.97-6.59l0.02,31.05
		c-5.04,2.2-12.76,4.28-23.16,6.26c-10.41,1.98-21.19,2.97-32.36,2.98c-11.28,0.01-21.99-1.44-32.12-4.33
		c-10.13-2.89-18.98-7.57-26.54-14.03c-7.56-6.46-13.56-14.83-18.01-25.13c-4.44-10.29-6.67-22.77-6.68-37.45
		c-0.01-14.46,2.06-27.11,6.22-37.96c4.15-10.85,9.73-19.83,16.74-26.95c7-7.12,15.02-12.47,24.06-16.03
		c9.03-3.56,18.37-5.35,28.01-5.36c10.08-0.01,19.36,1.52,27.85,4.58c8.49,3.06,15.83,7.88,22.02,14.44
		c6.19,6.57,11.02,15.03,14.47,25.37c3.46,10.35,5.19,22.59,5.2,36.72c-0.11,5.48-0.27,10.13-0.48,13.96l-104.33,0.07
		c0.55,7.34,2.2,13.61,4.94,18.81c2.74,5.2,6.33,9.42,10.77,12.64c4.44,3.23,9.61,5.58,15.53,7.05
		C370.32,326.72,376.72,327.46,383.62,327.45z M367.95,221.99c-4.93,0-9.31,0.91-13.14,2.72c-3.83,1.81-7.14,4.28-9.93,7.4
		c-2.79,3.12-5.01,6.77-6.65,10.93c-1.64,4.16-2.73,8.6-3.28,13.31l62.6-0.04c0-4.71-0.64-9.14-1.9-13.31
		c-1.26-4.16-3.13-7.8-5.59-10.92c-2.47-3.12-5.53-5.58-9.21-7.39C377.17,222.89,372.88,221.98,367.95,221.99z"/>
</g>
</svg>
