<?xml version="1.0" encoding="utf-8"?>
<!-- Generator: Adobe Illustrator 24.1.2, SVG Export Plug-In . SVG Version: 6.00 Build 0)  -->
<svg version="1.1" id="Capa_1" xmlns="http://www.w3.org/2000/svg" xmlns:xlink="http://www.w3.org/1999/xlink" x="0px" y="0px"
	 viewBox="0 0 512 512" style="enable-background:new 0 0 512 512;" xml:space="preserve">
<style type="text/css">
	.st0{fill:#330000;}
	.st1{fill:#FF9A00;}
</style>
<path id="XMLID_1799_" class="st0" d="M409.1,510.8L103.22,511C46.91,511.04,1.23,465.42,1.2,409.1L1,103.22
	C0.96,46.91,46.58,1.23,102.9,1.2L408.78,1c56.31-0.04,101.99,45.58,102.03,101.9l0.2,305.88
	C511.04,465.09,465.42,510.77,409.1,510.8z"/>
<g id="XMLID_1797_">
	<path class="st1" d="M176.03,290.58l-19.47,64.28l-42.73,0.03l72.53-226.83l52.83-0.03l73.83,226.73l-44.75,0.03l-20.56-64.25
		L176.03,290.58z M240.95,259.24l-17.87-55.84c-4.38-13.79-8.09-29.27-11.47-42.39l-0.67,0c-3.36,13.12-7.05,28.94-10.74,42.4
		l-17.46,55.87L240.95,259.24z"/>
	<path class="st1" d="M385.22,145.09c0.01,12.11-9.07,22.21-23.54,22.22c-13.79,0.01-22.89-10.08-22.89-22.19
		c-0.01-12.79,9.41-22.55,23.2-22.56C376.12,122.55,384.88,132.3,385.22,145.09z M341.28,354.74l-0.11-163.86l41.39-0.03
		l0.11,163.86L341.28,354.74z"/>
</g>
</svg>
