<?xml version="1.0" encoding="utf-8"?>
<!-- Generator: Adobe Illustrator 24.1.2, SVG Export Plug-In . SVG Version: 6.00 Build 0)  -->
<svg version="1.1" id="Capa_1" xmlns="http://www.w3.org/2000/svg" xmlns:xlink="http://www.w3.org/1999/xlink" x="0px" y="0px"
	 viewBox="0 0 512 512" style="enable-background:new 0 0 512 512;" xml:space="preserve">
<style type="text/css">
	.st0{fill:#001E36;}
	.st1{fill:#31A8FF;}
</style>
<path id="XMLID_1822_" class="st0" d="M409.1,510.8L103.22,511C46.91,511.04,1.23,465.42,1.2,409.1L1,103.22
	C0.96,46.91,46.58,1.23,102.9,1.2L408.78,1c56.31-0.04,101.99,45.58,102.03,101.9l0.2,305.88
	C511.04,465.09,465.42,510.77,409.1,510.8z"/>
<g id="XMLID_1818_">
	<path class="st1" d="M119.05,131.11c15.14-2.7,35.66-4.73,63.25-4.75c30.28-0.02,52.16,6.36,66.63,18.46
		c13.47,11.09,22.23,28.92,22.24,50.12c0.01,21.53-6.71,39.04-19.15,51.16c-16.81,16.5-42.38,24.59-71.65,24.61
		c-7.74,0-14.47-0.33-20.19-1.67l0.05,85.8l-41.05,0.03L119.05,131.11z M160.17,236.4c5.38,1.68,11.78,2.01,20.19,2.01
		c30.96-0.02,49.79-15.51,49.77-41.75c-0.02-25.24-17.52-38.35-46.12-38.33c-11.44,0.01-19.52,1.02-23.89,2.03L160.17,236.4z"/>
	<path class="st1" d="M296.82,316.4c9.09,5.71,26.93,12.09,41.73,12.08c18.17-0.01,26.24-7.75,26.23-18.52
		c-0.01-11.1-6.74-16.48-26.93-23.87c-31.97-10.75-45.11-28.24-45.12-47.75c-0.02-28.94,23.86-51.16,61.88-51.18
		c18.17-0.01,33.99,4.35,43.75,9.73l-8.39,28.94c-6.73-4.03-20.19-9.41-34.66-9.4c-14.81,0.01-22.88,7.42-22.87,17.51
		c0.01,10.43,7.75,15.14,28.62,22.86c29.95,10.41,43.42,25.54,43.77,49.77c0.02,29.95-23.18,51.49-66.59,51.52
		c-19.85,0.01-37.69-4.69-49.81-11.41L296.82,316.4z"/>
</g>
</svg>
