<?xml version="1.0" encoding="utf-8"?>
<!-- Generator: Adobe Illustrator 24.1.2, SVG Export Plug-In . SVG Version: 6.00 Build 0)  -->
<svg version="1.1" id="Capa_1" xmlns="http://www.w3.org/2000/svg" xmlns:xlink="http://www.w3.org/1999/xlink" x="0px" y="0px"
	 viewBox="0 0 512 512" style="enable-background:new 0 0 512 512;" xml:space="preserve">
<style type="text/css">
	.st0{fill:#00005B;}
	.st1{fill:#9999FF;}
</style>
<path id="XMLID_1815_" class="st0" d="M409.1,510.8L103.22,511C46.91,511.04,1.23,465.42,1.2,409.1L1,103.22
	C0.96,46.91,46.58,1.23,102.9,1.2L408.78,1c56.31-0.04,101.99,45.58,102.03,101.9l0.2,305.88
	C511.04,465.09,465.42,510.77,409.1,510.8z"/>
<g id="XMLID_1812_">
	<path class="st1" d="M183.16,269.73c-3.61,0-7.17-0.05-10.68-0.16c-3.51-0.11-6.79-0.32-9.86-0.65l0.06,85.92l-40.25,0.03
		l-0.14-219.82l63.42-0.04c10.62-0.01,19.9,0.45,27.85,1.38c7.94,0.93,15.04,2.32,21.28,4.18c15.01,4.59,26.57,11.92,34.68,21.99
		c8.11,10.07,12.17,22.89,12.18,38.44c0.01,10.63-2.18,20.18-6.55,28.67c-4.38,8.49-10.78,15.7-19.21,21.62
		c-8.43,5.92-18.72,10.47-30.88,13.66C212.89,268.13,198.93,269.72,183.16,269.73z M162.6,235.08c2.3,0.33,5.23,0.57,8.79,0.73
		c3.56,0.16,7.25,0.24,11.09,0.24c10.84-0.01,19.93-0.89,27.27-2.65c7.34-1.76,13.25-4.2,17.74-7.32c4.49-3.12,7.72-6.91,9.69-11.34
		c1.97-4.44,2.95-9.28,2.95-14.54c0-6.46-1.49-12.05-4.45-16.75c-2.96-4.71-8.11-8.37-15.45-11c-3.84-1.31-8.57-2.27-14.21-2.87
		c-5.64-0.6-12.57-0.9-20.78-0.89l-22.67,0.01L162.6,235.08z"/>
	<path class="st1" d="M414.12,226.38l-3.29,0c-11.94,0.01-22.43,1.8-31.46,5.36c-9.03,3.57-16.01,9.02-20.94,16.36l0.07,106.63
		l-38.94,0.02l-0.1-159.2l32.2-0.02l3.63,22.18l0.66,0c4.59-8.11,10.92-14.49,18.96-19.15c8.05-4.66,17.71-6.99,28.99-7
		c3.94,0,7.34,0.22,10.19,0.65L414.12,226.38z"/>
</g>
</svg>
