<?xml version="1.0" encoding="utf-8"?>
<!-- Generator: Adobe Illustrator 24.1.2, SVG Export Plug-In . SVG Version: 6.00 Build 0)  -->
<svg version="1.1" id="Capa_1" xmlns="http://www.w3.org/2000/svg" xmlns:xlink="http://www.w3.org/1999/xlink" x="0px" y="0px"
	 viewBox="0 0 512 512" style="enable-background:new 0 0 512 512;" xml:space="preserve">
<style type="text/css">
	.st0{fill:#1C769B;}
	.st1{fill:#2795B7;}
	.st2{fill:#3FB5D1;}
</style>
<g id="XMLID_1785_">
	<g id="XMLID_1788_">
		<path id="XMLID_1793_" class="st0" d="M1.01,255.99c0,100.93,58.65,188.16,143.71,229.48L23.08,152.22
			C8.95,183.92,1.01,219.02,1.01,255.99z"/>
		<path id="XMLID_1792_" class="st0" d="M260.47,278.29l-76.51,222.32c22.86,6.72,47,10.39,72.04,10.39
			c29.69,0,58.17-5.13,84.67-14.45c-0.67-1.1-1.31-2.25-1.82-3.51L260.47,278.29z"/>
		<path id="XMLID_1791_" class="st0" d="M428.14,243.14c0-31.53-11.33-53.34-21.02-70.32c-12.94-21.03-25.06-38.82-25.06-59.81
			c0-23.45,17.78-45.27,42.82-45.27c1.14,0,2.2,0.16,3.29,0.21C382.84,26.38,322.38,1,256,1C166.9,1,88.54,46.71,42.96,115.93
			c5.99,0.19,11.62,0.31,16.4,0.31c26.66,0,67.97-3.24,67.97-3.24c13.74-0.82,15.35,19.39,1.61,21c0,0-13.81,1.63-29.18,2.44
			l92.86,276.19l55.81-167.36l-39.7-108.83c-13.75-0.81-26.77-2.44-26.77-2.44c-13.74-0.81-12.13-21.81,1.63-21
			c0,0,42.11,3.24,67.16,3.24c26.67,0,67.96-3.24,67.96-3.24c13.75-0.82,15.37,19.39,1.62,21c0,0-13.83,1.63-29.18,2.44
			l92.15,274.09l25.46-84.98C419.74,290.27,428.14,264.95,428.14,243.14z"/>
		<path id="XMLID_1789_" class="st0" d="M481.49,159.88c0,25.87-4.84,54.95-19.4,91.34L384.2,476.39
			C460.01,432.2,510.99,350.06,510.99,256c0-44.34-11.33-86.02-31.23-122.35C480.87,141.78,481.49,150.48,481.49,159.88z"/>
	</g>
	<path id="XMLID_1787_" class="st1" d="M382.06,113c0-23.45,17.78-45.27,42.82-45.27c1.14,0,2.2,0.16,3.29,0.21
		C382.84,26.38,322.38,1,256,1C166.9,1,88.54,46.71,42.96,115.93c5.99,0.19,11.62,0.31,16.4,0.31c26.66,0,67.97-3.24,67.97-3.24
		c13.74-0.82,15.35,19.39,1.61,21c0,0-13.81,1.63-29.18,2.44l35.41,105.32c24.09,8.51,50.19,13.19,77.45,13.19
		c11.34,0,22.49-0.81,33.39-2.37l2.43-7.3l-39.7-108.83c-13.75-0.81-26.77-2.44-26.77-2.44c-13.74-0.81-12.13-21.81,1.63-21
		c0,0,42.11,3.24,67.16,3.24c26.67,0,67.96-3.24,67.96-3.24c13.75-0.82,15.37,19.39,1.62,21c0,0-13.83,1.63-29.18,2.44l30.68,91.27
		c31.14-16.75,57.53-40.4,76.77-68.77C389.34,143.57,382.06,129.24,382.06,113z"/>
	<path id="XMLID_1786_" class="st2" d="M256,1C175.99,1,104.72,37.93,57.97,95.58c41.04,8.53,86.1,13.26,133.4,13.26
		c89.56,0,171.16-16.92,232.51-44.67C379.04,24.87,320.32,1,256,1z"/>
</g>
</svg>
